<svg xmlns="http://www.w3.org/2000/svg" width="131.751" height="25.71" viewBox="0 0 131.751 25.71"><g transform="translate(32.264 6.513)"><path d="M120.473,25.024h3.745a7.085,7.085,0,0,1,2.649.478,6.158,6.158,0,0,1,2.051,1.316,5.886,5.886,0,0,1,1.325,1.975,6.411,6.411,0,0,1,.47,2.47,6.276,6.276,0,0,1-.487,2.479,5.973,5.973,0,0,1-1.342,1.974,6.258,6.258,0,0,1-2.043,1.308,6.817,6.817,0,0,1-2.573.479h-3.8Zm2.975,2.769v6.923h.684a3.927,3.927,0,0,0,1.479-.265,3.338,3.338,0,0,0,1.129-.735,3.2,3.2,0,0,0,.718-1.1,3.683,3.683,0,0,0,.248-1.351,3.848,3.848,0,0,0-.239-1.367,3.141,3.141,0,0,0-.7-1.1,3.215,3.215,0,0,0-1.136-.735,4.225,4.225,0,0,0-1.548-.265Z" transform="translate(-120.473 -24.835)" fill="#fff"/><path d="M164.387,25.024h7.4v2.769h-4.427v2.051h4.427v2.769h-4.427v2.12h4.427V37.5h-7.4Z" transform="translate(-152.626 -24.835)" fill="#fff"/><path d="M201.885,37.175A4.736,4.736,0,0,1,198.56,36.1a4.131,4.131,0,0,1-1.171-3.2H200.5v.154a1.428,1.428,0,0,0,.376,1.017,1.3,1.3,0,0,0,.992.4,1.268,1.268,0,0,0,.923-.316,1.045,1.045,0,0,0,.325-.778.723.723,0,0,0-.179-.5,2.05,2.05,0,0,0-.47-.385,4.308,4.308,0,0,0-.684-.333l-.838-.325q-.581-.221-1.189-.521a4.861,4.861,0,0,1-1.1-.744,3.594,3.594,0,0,1-.812-1.068A3.312,3.312,0,0,1,197.526,28a3.7,3.7,0,0,1,.291-1.479,3.326,3.326,0,0,1,.829-1.162,3.844,3.844,0,0,1,1.307-.761,5.14,5.14,0,0,1,1.727-.274,4.491,4.491,0,0,1,3.128,1.009,3.863,3.863,0,0,1,1.127,2.975h-2.957v-.137a1.2,1.2,0,0,0-.342-.94,1.379,1.379,0,0,0-.957-.307,1.249,1.249,0,0,0-.863.282.892.892,0,0,0-.317.693.716.716,0,0,0,.179.47,1.873,1.873,0,0,0,.479.393,4.956,4.956,0,0,0,.7.342q.4.163.847.333a12.511,12.511,0,0,1,1.213.53,5.012,5.012,0,0,1,1.111.752,3.691,3.691,0,0,1,.82,1.077,3.291,3.291,0,0,1,.325,1.521,4.092,4.092,0,0,1-.256,1.427,3.458,3.458,0,0,1-.787,1.231,3.99,3.99,0,0,1-1.334.872A4.98,4.98,0,0,1,201.885,37.175Z" transform="translate(-176.79 -24.32)" fill="#fff"/><path d="M236.2,25.024H239.2V37.5H236.2Z" transform="translate(-205.204 -24.835)" fill="#fff"/><path d="M259.583,37.206a6.454,6.454,0,0,1-2.5-.487,6.249,6.249,0,0,1-3.41-3.385,6.757,6.757,0,0,1-.009-5.06,6.169,6.169,0,0,1,1.359-2.034,6.374,6.374,0,0,1,2.069-1.359,6.766,6.766,0,0,1,2.615-.5,6.343,6.343,0,0,1,3.88,1.282,5.93,5.93,0,0,1,1.343,1.427,6.27,6.27,0,0,1,.829,1.8h-3.368a2.743,2.743,0,0,0-1.068-1.2,3.253,3.253,0,0,0-1.735-.436,3.45,3.45,0,0,0-1.385.273,3.254,3.254,0,0,0-1.086.752,3.468,3.468,0,0,0-.709,1.128,3.731,3.731,0,0,0-.257,1.385,3.617,3.617,0,0,0,.265,1.385,3.612,3.612,0,0,0,5.128,1.641,2.9,2.9,0,0,0,1.069-1.333h-3.469V29.7h6.821v1.163a6.668,6.668,0,0,1-.436,2.393,6.039,6.039,0,0,1-3.274,3.427A6.53,6.53,0,0,1,259.583,37.206Z" transform="translate(-217.634 -24.368)" fill="#fff"/><path d="M306.789,25.024h3.18l4.513,7.111V25.024h2.958V37.5h-2.958l-4.718-7.47V37.5h-2.975Z" transform="translate(-256.892 -24.835)" fill="#fff"/><path d="M358.585,37.206a6.444,6.444,0,0,1-2.5-.487,6.32,6.32,0,0,1-2.043-1.351,6.253,6.253,0,0,1-1.368-2.034,6.759,6.759,0,0,1-.009-5.06,6.149,6.149,0,0,1,1.359-2.034,6.381,6.381,0,0,1,2.068-1.359,6.778,6.778,0,0,1,2.616-.5,6.348,6.348,0,0,1,3.88,1.282,5.92,5.92,0,0,1,1.341,1.427,6.233,6.233,0,0,1,.829,1.8h-3.367a2.745,2.745,0,0,0-1.069-1.2,3.253,3.253,0,0,0-1.735-.436,3.447,3.447,0,0,0-1.384.273,3.238,3.238,0,0,0-1.086.752,3.489,3.489,0,0,0-.71,1.128,3.752,3.752,0,0,0-.256,1.385,3.631,3.631,0,0,0,.265,1.385,3.4,3.4,0,0,0,3.189,2.137,3.385,3.385,0,0,0,1.94-.5,2.91,2.91,0,0,0,1.068-1.333h-3.47V29.7h6.821v1.163a6.669,6.669,0,0,1-.436,2.393,6.039,6.039,0,0,1-3.274,3.427A6.525,6.525,0,0,1,358.585,37.206Z" transform="translate(-290.123 -24.368)" fill="#fff"/><path d="M410.448,37.673a5.51,5.51,0,0,1-1.863-.3,3.83,3.83,0,0,1-1.427-.881,3.97,3.97,0,0,1-.915-1.427,5.4,5.4,0,0,1-.325-1.94v-8.1h2.992v8.188a1.841,1.841,0,0,0,.418,1.274,1.425,1.425,0,0,0,1.12.47,1.471,1.471,0,0,0,1.145-.47,1.822,1.822,0,0,0,.428-1.274V25.024h2.974v8.1a5.381,5.381,0,0,1-.325,1.94,3.953,3.953,0,0,1-.914,1.427,3.831,3.831,0,0,1-1.428.881A5.561,5.561,0,0,1,410.448,37.673Z" transform="translate(-329.473 -24.835)" fill="#fff"/><path d="M446.193,25.024h2.992l3.162,4.376,3.282-4.376h2.82V37.5h-2.974V29.81l-3.145,4.239-3.162-4.256V37.5h-2.975Z" transform="translate(-358.962 -24.835)" fill="#fff"/></g><path d="M0,0,12.855,12.855,0,25.71" transform="translate(0 0)" fill="#fff"/><path d="M60.855,25.71,48,12.855,60.855,0" transform="translate(-35.145)" fill="#fff"/><circle cx="3.213" cy="3.213" r="3.213" transform="translate(9.642 3.213)" fill="#fff"/><circle cx="3.213" cy="3.213" r="3.213" transform="translate(9.642 16.064)" fill="#fff"/></svg>