<svg xmlns="http://www.w3.org/2000/svg" width="126.302" height="16.335" viewBox="0 0 126.302 16.335"><g transform="translate(0 0.002)"><path d="M325.7.7h3.8l4,5.528L337.673.7h3.561V16.505h-3.765V6.771l-4,5.359-4-5.393v9.768H325.7Z" transform="translate(-214.931 -0.367)" fill="currentColor"/><path d="M291.23,16.709a6.987,6.987,0,0,1-2.374-.373,4.85,4.85,0,0,1-1.8-1.119,5.019,5.019,0,0,1-1.153-1.8,6.85,6.85,0,0,1-.407-2.442V.7h3.8V11.078a2.34,2.34,0,0,0,.543,1.628,1.8,1.8,0,0,0,1.425.61,1.865,1.865,0,0,0,1.458-.61,2.306,2.306,0,0,0,.543-1.628V.7h3.765V10.977a6.818,6.818,0,0,1-.407,2.442,5.02,5.02,0,0,1-1.153,1.8,4.85,4.85,0,0,1-1.8,1.119,7.054,7.054,0,0,1-2.442.373Z" transform="translate(-188.262 -0.378)" fill="currentColor"/><path d="M239.805,16.31a8.174,8.174,0,0,1-3.154-.61,8,8,0,0,1-2.578-1.7,7.9,7.9,0,0,1-1.73-2.578A8.14,8.14,0,0,1,231.7,8.2a8.208,8.208,0,0,1,.611-3.188,7.8,7.8,0,0,1,1.73-2.578,8.072,8.072,0,0,1,2.612-1.73A8.581,8.581,0,0,1,239.975.1a8.038,8.038,0,0,1,4.918,1.628,7.5,7.5,0,0,1,1.7,1.8A7.9,7.9,0,0,1,247.64,5.8h-4.273a3.493,3.493,0,0,0-1.357-1.526,4.1,4.1,0,0,0-2.2-.543,4.375,4.375,0,0,0-1.764.339,4.1,4.1,0,0,0-1.391.95,4.409,4.409,0,0,0-.916,1.424A4.749,4.749,0,0,0,235.4,8.2a4.613,4.613,0,0,0,.339,1.764,4.526,4.526,0,0,0,6.478,2.069,3.7,3.7,0,0,0,1.357-1.7h-4.307V6.813h8.649V8.272a8.445,8.445,0,0,1-.543,3.019,7.631,7.631,0,0,1-4.172,4.375A8.275,8.275,0,0,1,239.805,16.31Z" transform="translate(-152.676 0.01)" fill="currentColor"/><path d="M186.3.7h4.036l5.7,9.022V.7h3.731V16.505h-3.731l-5.969-9.463v9.463H186.3Z" transform="translate(-122.742 -0.399)" fill="currentColor"/><path d="M140.739,16.31a8.174,8.174,0,0,1-3.188-.61,7.9,7.9,0,0,1-4.307-4.273A8.174,8.174,0,0,1,132.6,8.2a8.242,8.242,0,0,1,.611-3.188,7.8,7.8,0,0,1,1.764-2.578,8.072,8.072,0,0,1,2.612-1.73A8.581,8.581,0,0,1,140.909.1a8.038,8.038,0,0,1,4.918,1.628,7.5,7.5,0,0,1,1.7,1.8A7.937,7.937,0,0,1,148.574,5.8H144.3a3.459,3.459,0,0,0-1.357-1.526,4.1,4.1,0,0,0-2.2-.543,4.375,4.375,0,0,0-1.764.339,4.138,4.138,0,0,0-1.391.95A4.409,4.409,0,0,0,136.7,6.44a4.714,4.714,0,0,0-.339,1.764,4.579,4.579,0,0,0,.339,1.764,4.579,4.579,0,0,0,6.478,2.069,3.663,3.663,0,0,0,1.357-1.7H140.2V6.813h8.649V8.272a8.446,8.446,0,0,1-.543,3.019,7.631,7.631,0,0,1-4.172,4.375A8.276,8.276,0,0,1,140.739,16.31Z" transform="translate(-87.288 -0.01)" fill="currentColor"/><path d="M115.7.7h3.833V16.505H115.7Z" transform="translate(-76.221 -0.419)" fill="currentColor"/><path d="M82.6,16.279a6.03,6.03,0,0,1-4.206-1.357,5.228,5.228,0,0,1-1.492-4.07h3.934v.2a1.8,1.8,0,0,0,.475,1.289,1.628,1.628,0,0,0,1.255.509,1.594,1.594,0,0,0,1.153-.407,1.323,1.323,0,0,0,.407-.984.916.916,0,0,0-.237-.61,2.612,2.612,0,0,0-.611-.475l-.882-.407-1.051-.407-1.492-.644a6.139,6.139,0,0,1-1.391-.95,4.545,4.545,0,0,1-1.018-1.357,4.206,4.206,0,0,1-.407-1.9,4.68,4.68,0,0,1,.373-1.865A4.206,4.206,0,0,1,78.46,1.389a4.884,4.884,0,0,1,1.7-1.051A6.512,6.512,0,0,1,82.327,0a5.7,5.7,0,0,1,3.968,1.289,4.818,4.818,0,0,1,1.424,3.765H83.989v-.17A1.526,1.526,0,0,0,83.548,3.7a1.764,1.764,0,0,0-1.221-.373,1.594,1.594,0,0,0-1.085.373,1.119,1.119,0,0,0-.407.882.916.916,0,0,0,.237.61,2.374,2.374,0,0,0,.611.441l.882.441,1.085.407,1.526.678a6.342,6.342,0,0,1,1.391.95,4.68,4.68,0,0,1,1.051,1.357,4.172,4.172,0,0,1,.407,1.933,5.189,5.189,0,0,1-.339,1.8,4.375,4.375,0,0,1-.984,1.56,5.054,5.054,0,0,1-1.7,1.119A6.309,6.309,0,0,1,82.6,16.279Z" transform="translate(-50.548 0)" fill="currentColor"/><path d="M43.9.7h9.395V4.193h-5.63V6.8h5.63V10.3h-5.63v2.713h5.63v3.493H43.9Z" transform="translate(-28.943 -0.507)" fill="currentColor"/><path d="M0,.7H4.748a8.988,8.988,0,0,1,3.358.61,7.8,7.8,0,0,1,2.612,1.662,7.462,7.462,0,0,1,1.662,2.51,8.106,8.106,0,0,1,.577,3.12,7.936,7.936,0,0,1-.61,3.154,7.563,7.563,0,0,1-1.7,2.51,7.936,7.936,0,0,1-2.578,1.662,8.649,8.649,0,0,1-3.256.611H0ZM3.765,4.192v8.784h.882a4.986,4.986,0,0,0,1.865-.339,4.24,4.24,0,0,0,1.424-.916A4.036,4.036,0,0,0,8.852,10.3a4.647,4.647,0,0,0,.305-1.7,4.884,4.884,0,0,0-.305-1.73A3.968,3.968,0,0,0,7.97,5.481a4.07,4.07,0,0,0-1.458-.95,5.359,5.359,0,0,0-1.967-.339Z" transform="translate(0 -0.345)" fill="currentColor"/></g></svg>