<svg xmlns="http://www.w3.org/2000/svg" width="24" height="24" viewBox="0 0 24 24"><rect width="24" height="24" fill="none"/><path d="M23.8,7.2a4.541,4.541,0,0,0-1-2.4,2.949,2.949,0,0,0-2.4-1C17,3.6,12,3.6,12,3.6h0s-5,0-8.4.2a3.825,3.825,0,0,0-2.4,1,5.643,5.643,0,0,0-1,2.4S0,9.1,0,11.1v1.8c0,1.9.2,3.9.2,3.9a4.541,4.541,0,0,0,1,2.4,3.723,3.723,0,0,0,2.6,1c1.9.2,8.2.2,8.2.2s5,0,8.4-.3a3.825,3.825,0,0,0,2.4-1,5.643,5.643,0,0,0,1-2.4s.2-1.9.2-3.9V11C24,9.1,23.8,7.2,23.8,7.2ZM9.5,15.1V8.4L16,11.8Z" fill="#fff"/></svg>