<svg xmlns="http://www.w3.org/2000/svg" width="45" height="45" viewBox="0 0 45 45" id="menu-icon"><g transform="translate(-55)"><g transform="translate(55)" fill="none" stroke="currentColor" stroke-miterlimit="10" stroke-width="1"><rect width="45" height="45" rx="22.5" stroke="none"/><rect x="0.5" y="0.5" width="44" height="44" rx="22" fill="none"/></g><g transform="translate(68 16)"><path d="M.625,1.271H19.373A.631.631,0,0,0,20,.636.631.631,0,0,0,19.373,0H.625A.631.631,0,0,0,0,.636.631.631,0,0,0,.625,1.271Z" transform="translate(0 0.008)" fill="currentColor"/><path d="M19.373,0H.625A.631.631,0,0,0,0,.636a.631.631,0,0,0,.625.636H19.373A.631.631,0,0,0,20,.636.631.631,0,0,0,19.373,0Z" transform="translate(0 6.364)" fill="currentColor"/><path d="M19.373,0H.625A.631.631,0,0,0,0,.636a.631.631,0,0,0,.625.636H19.373A.631.631,0,0,0,20,.636.63.63,0,0,0,19.373,0Z" transform="translate(0 12.719)" fill="currentColor"/></g></g></svg>